<svg id="Layer_1" data-name="Layer 1" xmlns="http://www.w3.org/2000/svg" xmlns:xlink="http://www.w3.org/1999/xlink" viewBox="0 0 24 24"><defs><style>.cls-1,.cls-3{fill:none;}.cls-2{clip-path:url(#clip-path);}.cls-3{stroke:#00bfff;stroke-linecap:round;stroke-linejoin:round;stroke-width:1.5px;}</style><clipPath id="clip-path"><rect class="cls-1" width="24" height="24"/></clipPath></defs><g class="cls-2"><path class="cls-3" d="M19,3H15a2,2,0,0,0-2,2V17a4,4,0,1,0,8,0V5a2,2,0,0,0-2-2Z"/><path class="cls-3" d="M13,7.35l-2-2a2,2,0,0,0-1.41-.59,2,2,0,0,0-1.42.59L5.34,8.18a2,2,0,0,0-.58,1.41A2,2,0,0,0,5.34,11l9,9"/><path class="cls-3" d="M7.3,13H5a2,2,0,0,0-2,2v4a2,2,0,0,0,2,2H17"/><path class="cls-3" d="M17,17h0"/></g></svg>